#!OML:ASF E:\emotionWalksFemale\Project 1\Capture day 1\Session 1\Female1.ASF
:FULLY-SPECIFIED
:DEGREES
2328
root 10.0122 15.2959 -23.9958 -176.704 -183.122 -178.701
lowerback 5.30964 -3.40163 -1.39441
upperback -5.70888 -4.70359 0.103994
thorax -8.87972 -2.20394 1.49112
lowerneck -7.4029 0.114843 -1.02927
upperneck 12.2229 -0.12547 3.1007
head 4.88591 0.0845402 1.12026
rclavicle -9.10061e-015 -1.18277e-014
rhumerus -47.2164 -5.17363 -69.6085
rradius 35.9524
rwrist 15.7269
rhand 177.861 -236.854
rfingers 7.12502
rthumb -156.46 -265.434
lclavicle -9.10061e-015 -1.18277e-014
lhumerus -40.7873 7.31812 78.7992
lradius 37.9176
lwrist -13.2641
lhand -9.2481 -35.2836
lfingers 7.12502
lthumb 16.7076 -5.98256
rfemur -25.5167 10.422 26.1784
rtibia 28.4871
rfoot -7.25547 -22.0869
rtoes 18.7617
lfemur 10.3734 0.0545947 -26.709
ltibia 30.0907
lfoot 5.67597 -7.78071
ltoes 4.87365
2329
root 9.99732 15.3084 -23.9035 -176.715 -183.462 -178.82
lowerback 5.45051 -3.51732 -1.36209
upperback -5.69602 -4.85788 0.111522
thorax -8.94648 -2.27943 1.51008
lowerneck -7.69581 0.0712908 -0.877913
upperneck 12.3355 -0.199241 3.04979
head 4.97191 0.0551898 1.07612
rclavicle 3.21037e-014 4.72114e-015
rhumerus -47.1429 -5.48714 -69.441
rradius 36.0671
rwrist 15.8294
rhand 178.292 -235.777
rfingers 7.12502
rthumb -156.046 -264.302
lclavicle 3.21037e-014 4.72114e-015
lhumerus -40.4156 7.25248 78.6916
lradius 37.5651
lwrist -13.3115
lhand -9.36672 -35.5371
lfingers 7.12502
lthumb 16.5934 -6.22648
rfemur -25.035 10.4666 26.4371
rtibia 28.3962
rfoot -7.56975 -22.3921
rtoes 19.8277
lfemur 9.54502 0.353204 -26.0699
ltibia 31.7688
lfoot 7.74693 -8.89028
ltoes 10.1753
2330
root 9.98378 15.3161 -23.8067 -176.87 -183.536 -178.995
lowerback 5.6395 -3.60357 -1.38082
upperback -5.65513 -4.9669 0.253709
thorax -8.99552 -2.32469 1.69591
lowerneck -7.8439 0.127551 -1.11932
upperneck 12.3522 -0.117865 3.24795
head 5.00028 0.0980298 1.18305
rclavicle 4.76586e-014 5.1684e-015
rhumerus -46.9472 -5.3157 -69.3742
rradius 36.4066
rwrist 16.0329
rhand 179.208 -236.811
rfingers 7.12502
rthumb -155.169 -265.218
lclavicle 4.76586e-014 5.1684e-015
lhumerus -40.556 7.4732 78.6253
lradius 37.965
lwrist -13.3194
lhand -9.3015 -35.6547
lfingers 7.12502
lthumb 16.6562 -6.34938
rfemur -24.3501 10.6252 26.8113
rtibia 28.2275
rfoot -7.99063 -22.5853
rtoes 20.9457
lfemur 8.84881 0.833483 -25.4154
ltibia 33.5958
lfoot 9.11027 -9.80771
ltoes 10.7295
2331
root 9.97018 15.324 -23.7105 -176.916 -183.362 -179.213
lowerback 5.5998 -3.57416 -1.26247
upperback -5.61861 -4.91199 0.283573
thorax -8.94096 -2.30579 1.65029
lowerneck -7.74004 0.166305 -1.22825
upperneck 12.1285 -0.0818579 3.52347
head 4.91266 0.125871 1.28728
rclavicle 1.9717e-014 -7.45443e-016
rhumerus -46.7878 -5.24613 -69.5111
rradius 36.5729
rwrist 15.8959
rhand 179.196 -236.743
rfingers 7.12502
rthumb -155.18 -265.153
lclavicle 1.9717e-014 -7.45443e-016
lhumerus -40.5202 7.30631 78.5379
lradius 38.1416
lwrist -13.1547
lhand -9.53184 -35.8262
lfingers 7.12502
lthumb 16.4344 -6.50236
rfemur -23.7696 10.836 27.227
rtibia 27.9597
rfoot -8.42001 -22.5742
rtoes 21.6967
lfemur 7.98987 1.56136 -24.7081
ltibia 35.5733
lfoot 9.6947 -10.6482
ltoes 7.82123
2332
root 9.95577 15.335 -23.619 -176.904 -183.327 -179.518
lowerback 5.66268 -3.57282 -1.05707
upperback -5.68113 -4.88867 0.325221
thorax -9.0607 -2.30353 1.58556
lowerneck -7.46753 0.144815 -1.26299
upperneck 11.874 -0.123868 3.70483
head 4.78923 0.110562 1.34421
rclavicle 6.76551e-014 1.0138e-014
rhumerus -46.7764 -5.16645 -69.6364
rradius 36.5768
rwrist 15.5428
rhand 178.51 -236.557
rfingers 7.12502
rthumb -155.838 -265.055
lclavicle 6.76551e-014 1.0138e-014
lhumerus -40.6302 6.8573 78.6232
lradius 38.6277
lwrist -12.6186
lhand -9.69535 -34.9221
lfingers 7.12502
lthumb 16.277 -5.58532
rfemur -23.2606 10.9807 27.6985
rtibia 27.682
rfoot -8.761 -22.5914
rtoes 22.995
lfemur 7.01746 2.21205 -23.8693
ltibia 37.5694
lfoot 10.189 -11.3901
ltoes 3.15258
2333
root 9.94199 15.3427 -23.5304 -176.99 -183.445 -179.872
lowerback 5.87156 -3.61672 -0.789829
upperback -5.71824 -4.92052 0.367784
thorax -9.24302 -2.33093 1.50472
lowerneck -7.34169 0.0918258 -1.22981
upperneck 11.8088 -0.208862 3.78725
head 4.75025 0.0735599 1.35825
rclavicle -4.27418e-014 -7.60351e-015
rhumerus -46.8449 -5.07261 -69.8033
rradius 36.4652
rwrist 14.7085
rhand 176.775 -235.324
rfingers 7.12502
rthumb -157.502 -264.033
lclavicle -4.27418e-014 -7.60351e-015
lhumerus -40.7014 6.38814 78.6921
lradius 39.0653
lwrist -11.9887
lhand -9.72079 -34.2449
lfingers 7.12502
lthumb 16.2525 -4.90612
rfemur -22.6426 11.0371 28.2351
rtibia 27.38
rfoot -8.66571 -22.6527
rtoes 23.3709
lfemur 6.10849 2.70071 -22.9764
ltibia 39.6292
lfoot 10.6365 -11.6627
ltoes -4.24439
2334
root 9.92867 15.3342 -23.4468 -177.161 -183.558 -180.239
lowerback 6.03424 -3.6691 -0.434532
upperback -5.5474 -4.95191 0.38861
thorax -9.17986 -2.36959 1.33888
lowerneck -7.69587 0.0859189 -1.2447
upperneck 11.7419 -0.231846 3.94655
head 4.79024 0.0745201 1.4092
rclavicle 1.33376e-014 3.23957e-015
rhumerus -46.5853 -5.00696 -70.0393
rradius 36.7815
rwrist 14.8789
rhand 177.428 -236.519
rfingers 7.12502
rthumb -156.875 -265.152
lclavicle 1.33376e-014 3.23957e-015
lhumerus -40.3657 6.01131 78.6696
lradius 39.2872
lwrist -11.5211
lhand -9.84623 -34.5057
lfingers 7.12502
lthumb 16.1317 -5.15703
rfemur -21.998 11.054 28.8182
rtibia 27.085
rfoot -8.57664 -22.7233
rtoes 23.0423
lfemur 5.25723 3.10833 -22.0902
ltibia 41.6928
lfoot 11.8516 -10.7927
ltoes -6.89877
